# xmcd
#
# Track frame offsets:
#	150
#	17520
#	37352
#	54055
#	68140
#	87095
#	103105
#	116712
#	130757
#	148890
#	162925
#	180917
#	197390
#	207900
#	223887
#	241260
#	263295
#	279955
#	294022
#	310315
#
# Disc length: 4449 seconds
#
# Revision: 0
# Processed by: cddbd v1.5.2PL0 Copyright (c) Steve Scherf et al.
# Submitted via: audiograbber 1.83.01
#
DISCID=15115f14
DTITLE=Verdaguer - 20 Baladas Romanticas
DYEAR=1994
DGENRE=Ballad
TTITLE0=El Pasadiscos
TTITLE1=No Es Tan Facil
TTITLE2=Una Noche Para Vivir Contigo
TTITLE3=Si El Amor Es Como Dicen
TTITLE4=Bandera Blanca
TTITLE5=Dos (Due)
TTITLE6=Soy Un Tonto Sin Tu Amor
TTITLE7=Ven Ven Que Se Va La Vida
TTITLE8=Partire En Una Vieja Barca
TTITLE9=Dejame Decirte
TTITLE10=Volvere (Tornero)
TTITLE11=El Tren De Las Seis
TTITLE12=Es Una Barca Pequeña
TTITLE13=Yo Pescador De Amor
TTITLE14=Si Fuera Otra Vez Ayer
TTITLE15=Pajaro Que Comio Volo
TTITLE16=Jane
TTITLE17=Mi Chica Fea
TTITLE18=Siente Un Amor
TTITLE19=Estoy Celoso
EXTD=MS®
EXTT0=
EXTT1=
EXTT2=
EXTT3=
EXTT4=
EXTT5=
EXTT6=
EXTT7=
EXTT8=
EXTT9=
EXTT10=
EXTT11=
EXTT12=
EXTT13=
EXTT14=
EXTT15=
EXTT16=
EXTT17=
EXTT18=
EXTT19=
PLAYORDER=
